<svg xmlns="http://www.w3.org/2000/svg" xmlns:xlink="http://www.w3.org/1999/xlink" width="24" height="24" class="icon" p-id="3693" t="1534253537929" version="1.1" viewBox="0 0 1024 1024"><defs><style type="text/css"/></defs><path fill="#666" d="M793.6 28.5c37.3-37.1 97.7-37.2 134.9 0l67.4 67.2c37.3 37.1 37.3 97.4 0 134.5L248.3 975.7c-28.1 28-77.5 47.2-117.2 45.4l-81.6-3.6-43.7-1.9-1.9-43.5-3.6-81.3c-1.7-39.6 17.5-88.9 45.6-116.9L793.6 28.5z" p-id="3694"/><path fill="#F9F1FF" d="M827.4 62.2c18.6-18.6 48.8-18.6 67.5 0l67.4 67.2c18.6 18.6 18.6 48.7 0 67.3L214.6 942.1c-18.6 18.6-55.1 32.7-81.4 31.5l-81.6-3.6-3.6-81.3c-1.2-26.2 13-62.6 31.6-81.2l747.8-745.3z" p-id="3695"/><path fill="#FEFCEA" d="M747 198.7l81.8 81.5-67.5 67.3-81.8-81.5z" p-id="3696"/></svg>